<svg xmlns:xlink="http://www.w3.org/1999/xlink"
     xmlns="http://www.w3.org/2000/svg" width="16" height="16"
     viewBox="0 0 16 16">
  <path d="M3.42677 10.0787C3.42677 10.9984 2.68347 11.7417 1.76378 11.7417C0.844095 11.7417 0.100788 10.9984 0.100788 10.0787C0.100788 9.15905 0.844095 8.41574 1.76378 8.41574H3.42677V10.0787ZM4.25827 10.0787C4.25827 9.15905 5.00158 8.41574 5.92126 8.41574C6.84095 8.41574 7.58425 9.15905 7.58425 10.0787V14.2362C7.58425 15.1559 6.84095 15.8992 5.92126 15.8992C5.00158 15.8992 4.25827 15.1559 4.25827 14.2362V10.0787Z"
        fill="#E01E5A"></path>
  <path d="M5.92126 3.40158C5.00157 3.40158 4.25827 2.65827 4.25827 1.73858C4.25827 0.818899 5.00157 0.075592 5.92126 0.075592C6.84094 0.075592 7.58425 0.818899 7.58425 1.73858V3.40158H5.92126ZM5.92126 4.24567C6.84094 4.24567 7.58425 4.98898 7.58425 5.90866C7.58425 6.82835 6.84094 7.57166 5.92126 7.57166H1.75118C0.831495 7.57166 0.0881882 6.82835 0.0881882 5.90866C0.0881882 4.98898 0.831495 4.24567 1.75118 4.24567H5.92126Z"
        fill="#36C5F0"></path>
  <path d="M12.5858 5.90866C12.5858 4.98898 13.3291 4.24567 14.2488 4.24567C15.1685 4.24567 15.9118 4.98898 15.9118 5.90866C15.9118 6.82835 15.1685 7.57166 14.2488 7.57166H12.5858V5.90866ZM11.7543 5.90866C11.7543 6.82835 11.011 7.57166 10.0913 7.57166C9.17165 7.57166 8.42835 6.82835 8.42835 5.90866V1.73858C8.42835 0.818899 9.17165 0.075592 10.0913 0.075592C11.011 0.075592 11.7543 0.818899 11.7543 1.73858V5.90866V5.90866Z"
        fill="#2EB67D"></path>
  <path d="M10.0913 12.5732C11.011 12.5732 11.7543 13.3165 11.7543 14.2362C11.7543 15.1559 11.011 15.8992 10.0913 15.8992C9.17165 15.8992 8.42835 15.1559 8.42835 14.2362V12.5732H10.0913ZM10.0913 11.7417C9.17165 11.7417 8.42835 10.9984 8.42835 10.0787C8.42835 9.15905 9.17165 8.41574 10.0913 8.41574H14.2614C15.1811 8.41574 15.9244 9.15905 15.9244 10.0787C15.9244 10.9984 15.1811 11.7417 14.2614 11.7417H10.0913Z"
        fill="#ECB22E"></path>
</svg>